<?xml version="1.0" encoding="UTF-8" standalone="no" ?>
<!DOCTYPE svg PUBLIC "-//W3C//DTD SVG 1.1//EN" "http://www.w3.org/Graphics/SVG/1.1/DTD/svg11.dtd">
<svg xmlns="http://www.w3.org/2000/svg" xmlns:xlink="http://www.w3.org/1999/xlink" version="1.1" width="5193.333" height="4662.667" viewBox="0 0 5193.333 4662.667" xml:space="preserve">
<desc>Created with Fabric.js 5.3.0</desc>
<defs>
</defs>
<g transform="matrix(0.0051472686 0 0 0.0051472687 2596.6665 2331.3335)" id="0_Op84eUz1qAqkh3hWXsX"  >
<g style=""   >
		<g transform="matrix(1.3333332478 0 0 1.3333332478 0.3820320884 -1518.008557489)" id="gbZuUrNoo_sf6kDzM4D_e"  >
<path style="stroke: none; stroke-width: 1; stroke-dasharray: none; stroke-linecap: butt; stroke-dashoffset: 0; stroke-linejoin: miter; stroke-miterlimit: 4; fill: rgb(0,0,0); fill-rule: nonzero; opacity: 1;"  transform=" translate(-1947.7865240847, -609.9932715811)" d="M 3882.5 4.8 C 3848.6 29 3822.6 50 3757 106 C 3679.1 172.5 3645.5 199.1 3607.5 224.3 C 3579.1 243 3560.9 252.9 3530.5 266.1 C 3521.2 270.1 3499.8 280.3 3483 288.6 C 3455.2 302.5 3438.2 311.70000000000005 3374.5 347.5 C 3347.3 362.7 3308.2 382.7 3285.6 393 C 3204.2 429.9 3109 457.1 2985 478.9 C 2918.8 490.5 2895.3 492.59999999999997 2721.5 501.5 C 2624 506.5 2575.3 510.3 2532.5 516.1 C 2519.8 517.8000000000001 2488.1 523.6 2487.4 524.3000000000001 C 2486.8 524.8000000000001 2477.9 557.5000000000001 2474 572.8000000000001 C 2463.3 615.8000000000001 2456.7 649.8000000000001 2445 724 C 2430 819.1 2421.3 859.3 2403.5 916.6 C 2400.1 927.5 2399.8 927.9 2393.7 933.7 C 2378.2999999999997 948.1 2357.2 965.1 2328 986.5 C 2303.8 1004.2 2290.9 1014.3 2281.8 1022.9 C 2275.6000000000004 1028.6 2274.1000000000004 1029.3 2189.4 1067.1 L 2103.2000000000003 1105.5 L 2126.4 1110.1 C 2151.9 1115.1999999999998 2161.6 1117.6 2202 1128.6 C 2266.6 1146.3 2292.4 1150.5 2321.3 1148 C 2340.6000000000004 1146.4 2350.2000000000003 1144.1 2392.5 1130.9 C 2437.9 1116.7 2447.1 1112 2471.6 1090.3000000000002 C 2494.1 1070.3000000000002 2534.2999999999997 1038.5000000000002 2535.9 1039.4 C 2536.2000000000003 1039.6000000000001 2546.2000000000003 1045.7 2558 1053 C 2625.3 1094.6 2648.7 1108.6 2677.2 1124.4 C 2776.3999999999996 1179.2 2860 1207.6000000000001 2941.1 1214.1000000000001 C 2958.9 1215.5000000000002 2994.9 1214.7 3012 1212.5000000000002 C 3037.2 1209.3000000000002 3067.7 1201.8000000000002 3087.9 1193.9000000000003 C 3099.2000000000003 1189.5000000000002 3139.7000000000003 1168.2000000000003 3138 1167.6000000000004 C 3137.2 1167.3000000000004 3124 1163.7000000000003 3108.8 1159.5000000000005 C 2941.7000000000003 1114.0000000000005 2844 1070.8000000000004 2744.7000000000003 998.6000000000005 C 2719.9 980.6000000000005 2667.2000000000003 937.5000000000005 2668.4 936.2000000000005 C 2669.7000000000003 934.9000000000005 2690.2000000000003 941.1000000000005 2746 959.5000000000005 C 2816.2 982.7000000000005 2842.1 990.9000000000004 2881 1002.0000000000005 C 3088 1060.9000000000005 3248.4 1070.3000000000004 3367.8 1030.5000000000005 C 3436.2000000000003 1007.6000000000005 3491 966.7000000000005 3528.7000000000003 910.2000000000005 C 3532.9 904.0000000000005 3535.9 898.6000000000005 3535.6000000000004 898.2000000000005 C 3534.3 896.9000000000005 3510.9000000000005 896.8000000000005 3496.0000000000005 898.0000000000005 C 3488.0000000000005 898.6000000000005 3469.8000000000006 900.7000000000005 3455.5000000000005 902.6000000000005 C 3408.3000000000006 909.0000000000005 3400.4000000000005 909.9000000000004 3380.1000000000004 912.0000000000005 C 3275.3 922.4000000000004 3161.8 911.2000000000005 3021.8 876.4000000000004 C 2946.1000000000004 857.6000000000005 2851 828.4000000000004 2776.5 801.0000000000005 L 2771.5 799.1000000000005 L 2775.1 799.1000000000005 C 2780.1 799.0000000000005 2821.7999999999997 802.5000000000005 2857 806.1000000000005 C 2897.2 810.1000000000005 2934.9 814.7000000000005 3004.3 824.0000000000005 C 3098.7000000000003 836.8000000000004 3127.6000000000004 839.6000000000005 3173.5 840.7000000000005 C 3259.3 842.6000000000005 3354.1 828.2000000000005 3487.5 793.0000000000005 C 3555.1 775.2000000000005 3565.8 770.1000000000005 3598.5 740.4000000000004 C 3605.1 734.4000000000004 3621.1 720.2000000000004 3634 708.9000000000004 C 3676.7 671.6000000000005 3700.1 648.7000000000004 3721.5 623.5000000000005 C 3749.7 590.3000000000004 3768.7 560.2000000000005 3784 524.4000000000004 C 3788.5 513.9000000000004 3798.5 485.1000000000004 3797.8 484.50000000000045 C 3797.6000000000004 484.30000000000047 3789.4 488.70000000000044 3779.5 494.20000000000044 C 3557.9 617.2000000000005 3392.4 669.1000000000005 3195.5 677.0000000000005 C 3139.1 679.2000000000005 3077.8 677.3000000000004 3009.8 671.0000000000005 C 2965.4 666.9000000000004 2899.3 658.2000000000005 2902.6000000000004 656.9000000000004 C 2903.6000000000004 656.4000000000004 3026.7000000000003 632.2000000000004 3176.0000000000005 603.0000000000005 L 3447.5000000000005 550.0000000000005 L 3466.0000000000005 542.3000000000004 C 3476.1000000000004 538.2000000000004 3494.6000000000004 531.4000000000004 3507.0000000000005 527.3000000000004 C 3540.8000000000006 516.0000000000005 3555.4000000000005 509.7000000000004 3582.5000000000005 494.5000000000004 C 3665.7000000000003 448.1000000000004 3749.6000000000004 374.90000000000043 3806.1000000000004 299.5000000000004 C 3838.7000000000003 256.1000000000004 3864.2000000000003 208.4000000000004 3878.4000000000005 164.1000000000004 C 3894.4000000000005 114.40000000000039 3898.5000000000005 63.90000000000039 3890.4000000000005 16.100000000000392 C 3889.1000000000004 8.200000000000392 3887.9000000000005 1.6000000000003922 3887.8000000000006 1.5000000000003926 C 3887.600000000001 1.4000000000003925 3885.3000000000006 2.9000000000003925 3882.5000000000005 4.800000000000392 z M 5.2 17.2 C 1.6 37.8 0.7 51.7 1.3 76.5 C 1.9 100.2 3.1 110.9 7.5 132.6 C 19 188.2 47.6 247.6 90.3 304.5 C 148.1 381.5 235.60000000000002 456.6 321 502.5 C 345.1 515.4 356.6 520.2 390.5 531.5 C 402.6 535.5 420.2 542 429.5 545.9 L 446.5 553 L 719.5 606.5 C 869.7 636 993 660.2 993.5 660.4 C 995.3 661 989.9 662 963.5 665.5 C 915.6 671.8 872.9 676 824 679.2 C 797.7 680.9000000000001 693.4 680.9000000000001 670.5 679.2 C 595 673.5 538.6 664.7 474.5 648.5 C 365.1 620.9 257.4 575.7 118.69999999999999 499.3 C 107.19999999999999 493 97.69999999999999 488 97.49999999999999 488.2 C 97.29999999999998 488.4 99.29999999999998 495.09999999999997 101.89999999999999 503 C 116.6 546.5 137.5 583.1 170.5 623.2 C 186.5 642.6 225.3 680.9000000000001 258 709.5 C 273.7 723.3 291.2 738.8 297 744 C 332.4 776 339.4 779.1 425.5 801 C 516.4 824.2 578.9 835.8 648.5 842.2 C 667.3 843.9000000000001 747.3 844 767 842.2 C 805.5 838.8000000000001 822 836.8000000000001 920.5 823.6 C 988.9 814.4 1042.8 808.5 1098 804 C 1120.5 802.2 1125.6 802.1 1121.9 803.5 C 1092.1000000000001 814.4 1014.2 840.2 979.0000000000001 850.8 C 853.7000000000002 888.5 752.5000000000001 909.1999999999999 653.5000000000001 917.1999999999999 C 632.0000000000001 918.9 552.5000000000001 918.9 533.0000000000001 917.1999999999999 C 510.0000000000001 915.1999999999999 484.5000000000001 912.1999999999999 457.5000000000001 908.4 C 416.3000000000001 902.6999999999999 398.10000000000014 900.9 378.2000000000001 900.9 C 368.1000000000001 900.9 359.5000000000001 901.1 359.2000000000001 901.4 C 358.4000000000001 902.3 372.5000000000001 922.9 382.2000000000001 935.1999999999999 C 392.7000000000001 948.3 413.5000000000001 969.0999999999999 427.0000000000001 979.9999999999999 C 473.4000000000001 1017.0999999999999 533.3000000000001 1041.5 603.5000000000001 1051.8999999999999 C 650.6000000000001 1058.8999999999999 710.6000000000001 1059.8 768.5000000000001 1054.4999999999998 C 854.3000000000001 1046.4999999999998 952.0000000000001 1025.3999999999999 1064.1000000000001 990.5999999999998 C 1079.2 985.8999999999997 1116.7 973.6999999999998 1147.5000000000002 963.4999999999998 C 1178.3000000000002 953.2999999999997 1206.7000000000003 944.0999999999998 1210.5000000000002 942.9999999999998 C 1219.5000000000002 940.4999999999998 1227.0000000000002 939.0999999999998 1227.0000000000002 939.8999999999997 C 1227.0000000000002 941.6999999999997 1183.9000000000003 977.0999999999998 1159.5000000000002 995.4999999999998 C 1061.0000000000002 1069.4999999999998 959.4000000000002 1115.4999999999998 795.0000000000002 1160.5999999999997 C 779.9000000000002 1164.7999999999997 764.9000000000002 1168.8999999999996 761.7000000000003 1169.8999999999996 L 755.8000000000003 1171.4999999999995 L 779.2000000000003 1183.6999999999996 C 793.9000000000003 1191.3999999999996 806.9000000000003 1197.2999999999995 814.5000000000002 1199.9999999999995 C 880.3000000000002 1222.6999999999996 951.7000000000003 1224.4999999999995 1030.0000000000002 1205.3999999999996 C 1107.8000000000002 1186.2999999999997 1187.5000000000002 1149.1999999999996 1300.4 1079.2999999999997 C 1348.4 1049.4999999999998 1359.1000000000001 1042.9999999999998 1359.9 1042.9999999999998 C 1362.3000000000002 1042.9999999999998 1400.6000000000001 1073.4999999999998 1421.9 1092.2999999999997 C 1450.2 1117.2999999999997 1459 1121.4999999999998 1522.8000000000002 1140.4999999999998 C 1551.3000000000002 1148.9999999999998 1561.0000000000002 1150.8999999999999 1579.5000000000002 1151.6999999999998 C 1610.9000000000003 1152.9999999999998 1627.7000000000003 1149.8999999999999 1712.0000000000002 1127.1 C 1737.5000000000002 1120.1999999999998 1764.4000000000003 1114 1780.2000000000003 1111.3 C 1786.2000000000003 1110.3999999999999 1791.0000000000002 1109.3 1791.0000000000002 1109 C 1791.0000000000002 1108.7 1752.7000000000003 1091.4 1705.8000000000002 1070.5 L 1620.6000000000001 1032.5 L 1610.6000000000001 1023.7 C 1599.9 1014.3000000000001 1582.0000000000002 1000.5 1560.5000000000002 984.9000000000001 C 1543.7000000000003 972.8000000000001 1521.5000000000002 955.0000000000001 1507.0000000000002 942.0000000000001 L 1495.5000000000002 931.7000000000002 L 1490.2000000000003 914.6000000000001 C 1473.9000000000003 862.1000000000001 1465.2000000000003 821.7000000000002 1450.9000000000003 731.6000000000001 C 1439.2000000000003 657.5000000000001 1433.9000000000003 628.9000000000001 1424.4000000000003 589.0000000000001 C 1419.9000000000003 570.1000000000001 1409.0000000000002 529.7000000000002 1408.0000000000002 528.7000000000002 C 1405.8000000000002 526.2000000000002 1371.2000000000003 520.2000000000002 1338.0000000000002 516.5000000000001 C 1297.6000000000001 512.1000000000001 1246.2000000000003 508.60000000000014 1145.5000000000002 503.5000000000001 C 1014.2000000000003 496.9000000000001 979.7000000000003 493.9000000000001 925.5000000000002 484.9000000000001 C 805.9000000000002 464.9000000000001 710.0000000000002 439.1000000000001 631.4000000000002 405.9000000000001 C 591.0000000000002 388.80000000000007 563.4000000000002 374.80000000000007 495.5000000000002 336.80000000000007 C 428.2000000000002 299.1000000000001 407.30000000000024 288.4000000000001 359.9000000000002 267.4000000000001 C 299.4000000000002 240.50000000000009 255.4000000000002 209.4000000000001 145.5000000000002 115.60000000000008 C 78.6000000000002 58.50000000000008 49.300000000000196 34.60000000000008 21.300000000000196 14.500000000000085 C 14 9.3 7.9 5 7.7 5 C 7.5 5 6.300000000000001 10.5 5.2 17.2 z" stroke-linecap="round" />
</g>
		<g transform="matrix(1.3333332478 0 0 1.3333332478 -41.8373067038 179.2261203931)" id="i_WYpLYBIScU6dupPMf6z"  >
<path style="stroke: none; stroke-width: 1; stroke-dasharray: none; stroke-linecap: butt; stroke-dashoffset: 0; stroke-linejoin: miter; stroke-miterlimit: 4; fill: rgb(0,0,0); fill-rule: nonzero; opacity: 1;"  transform=" translate(-1916.1220179582, -1882.9193616953)" d="M 1997.5 309.1 C 1979.2 309.90000000000003 1965.1 312 1946.7 316.70000000000005 C 1857.4 339.1 1760 407.80000000000007 1709.5 484.00000000000006 C 1697.7 501.70000000000005 1689.9 518 1682.4 540.4000000000001 C 1664.2 595.1000000000001 1659 633.7 1659 716.0000000000001 C 1659 804.1000000000001 1669.9 862.5000000000001 1695.6 913.1000000000001 C 1711.6 944.5000000000001 1729.5 966.1000000000001 1770.3 1003.3000000000002 C 1789.1 1020.4000000000002 1790.6 1022.0000000000002 1799.1 1034.8000000000002 C 1813.8999999999999 1056.9 1820.6999999999998 1072.0000000000002 1825.3 1093.0000000000002 C 1828.8999999999999 1109.0000000000002 1830.5 1124.0000000000002 1834 1173.0000000000002 C 1838.4 1233.7000000000003 1841.7 1269.2000000000003 1848 1320.6000000000001 C 1854.2 1371.2 1858.8 1399.3000000000002 1871.5 1464.0000000000002 C 1880.7 1511.0000000000002 1885.5 1541.1000000000001 1886.4 1557.0000000000002 C 1887.2 1571.7000000000003 1887.2 1688.7000000000003 1886.4 1895.8000000000002 C 1885.7 2057.3 1885.5 2073 1884.1000000000001 2072.5 C 1880.5000000000002 2071.1 1798.1000000000001 2023.3 1760.7 2000.8 C 1685.9 1955.8999999999999 1623.5 1914.6 1583.6000000000001 1883.6 C 1513.1000000000001 1828.8999999999999 1484.0000000000002 1786.3 1484.0000000000002 1737.3 C 1484.0000000000002 1709.3 1497.5000000000002 1650.8 1514.1000000000001 1606.8 C 1538.6000000000001 1542.1 1573.7 1490.3999999999999 1631.3000000000002 1434.3 C 1657.2000000000003 1409.2 1678.1000000000001 1391.3 1741.5000000000002 1340 C 1770.9000000000003 1316.3 1783.8000000000002 1305.1 1795.1000000000001 1293.8 C 1826.1000000000001 1262.6 1826.3000000000002 1244.6 1795.8000000000002 1230.5 C 1780.4 1223.4 1754.5000000000002 1217.4 1726.9 1214.4 C 1707.7 1212.4 1661 1212.9 1643 1215.4 C 1576.3 1224.7 1517.1 1245 1428.5 1289.2 C 1366.1 1320.4 1326.3 1345.7 1290.7 1377 C 1251.6000000000001 1411.3 1222.2 1451.1 1195 1506.2 C 1150.9 1595.6000000000001 1132.7 1687.4 1141.6 1774.8000000000002 C 1147.6 1833.8000000000002 1167.6 1876.5000000000002 1208.5 1917.6000000000001 C 1229 1938.3000000000002 1250.3 1954.4 1275.5 1968.4 C 1295.2 1979.3000000000002 1318.8 1987.9 1325.3 1986.4 C 1333.2 1984.7 1331.3999999999999 1977 1315 1942 C 1282.1 1871.9 1271.5 1831.8 1273.4 1785.2 C 1275.7 1726.7 1295.9 1666.5 1330.1000000000001 1616.5 C 1344.1000000000001 1595.9 1361.6000000000001 1576.6 1370.4 1571.9 L 1375 1569.5 L 1377.2 1571.8 C 1379.3 1573.8999999999999 1379.5 1574.8999999999999 1379.4 1583.8 C 1379.3000000000002 1596.7 1377.6000000000001 1606.8999999999999 1366.4 1662 C 1346.1000000000001 1762.5 1340 1804.2 1340 1842.1 C 1340 1876.3 1344.8 1899.3999999999999 1357 1924.5 C 1377.6 1966.8 1419.9 2002.1 1510 2052.2 C 1555.3 2077.3999999999996 1644.9 2123.2999999999997 1726.3 2162.8999999999996 C 1742.1 2170.5999999999995 1755 2177.0999999999995 1755 2177.2999999999997 C 1755 2177.6 1746.3 2182.6 1735.8 2188.4999999999995 C 1670.7 2224.8999999999996 1597.2 2267.4999999999995 1563.2 2288.6999999999994 C 1508.3 2322.899999999999 1478.8 2344.399999999999 1455.1000000000001 2367.399999999999 C 1425.5000000000002 2396.2999999999993 1414.4 2418.7999999999993 1413.3000000000002 2452.599999999999 C 1411.7000000000003 2498.099999999999 1430.3000000000002 2554.799999999999 1464.7000000000003 2609.299999999999 C 1479.3000000000002 2632.299999999999 1495.3000000000002 2652.199999999999 1518.5000000000002 2675.8999999999987 C 1543.7000000000003 2701.699999999999 1567.4000000000003 2722.199999999999 1617.0000000000002 2760.9999999999986 C 1678.2000000000003 2808.8999999999987 1713.5000000000002 2839.3999999999987 1772.3000000000002 2895.3999999999987 C 1796.9 2918.799999999999 1805.1000000000001 2925.799999999999 1828.2000000000003 2943.699999999999 L 1843.1000000000004 2955.199999999999 L 1827.7000000000003 2970.8999999999987 C 1800.8000000000002 2998.3999999999987 1789.2000000000003 3015.8999999999987 1786.6000000000004 3033.0999999999985 C 1785.0000000000005 3043.6999999999985 1792.1000000000004 3062.6999999999985 1803.2000000000003 3077.4999999999986 C 1815.3000000000002 3093.799999999999 1843.2000000000003 3118.5999999999985 1875.7000000000003 3141.9999999999986 C 1882.9000000000003 3147.1999999999985 1888.6000000000004 3151.799999999999 1888.4000000000003 3152.1999999999985 C 1888.1000000000004 3152.6999999999985 1884.2000000000003 3155.7999999999984 1879.7000000000003 3159.1999999999985 C 1866.7000000000003 3169.0999999999985 1856.3000000000002 3178.6999999999985 1849.6000000000004 3186.8999999999983 C 1836.8000000000004 3202.599999999998 1821.8000000000004 3219.1999999999985 1802.5000000000005 3238.8999999999983 C 1789.5000000000005 3252.1999999999985 1784.3000000000004 3258.099999999998 1787.5000000000005 3255.7999999999984 C 1790.3000000000004 3253.8999999999983 1812.8000000000004 3238.5999999999985 1837.5000000000005 3221.999999999998 C 1862.3000000000004 3205.2999999999984 1883.9000000000005 3190.599999999998 1885.7000000000005 3189.2999999999984 L 1888.8000000000004 3186.8999999999983 L 1889.4000000000003 3193.1999999999985 C 1889.7000000000003 3196.6999999999985 1890.2000000000003 3214.7999999999984 1890.5000000000002 3233.4999999999986 C 1891.7000000000003 3309.299999999999 1895.1000000000001 3388.799999999999 1898.5000000000002 3426.3999999999987 C 1899.9000000000003 3440.9999999999986 1902.3000000000002 3455.5999999999985 1903.5000000000002 3456.799999999999 C 1904.8000000000002 3458.099999999999 1907.2000000000003 3453.9999999999986 1909.5000000000002 3446.799999999999 C 1918.4000000000003 3418.599999999999 1928.0000000000002 3340.299999999999 1936.6000000000001 3224.9999999999986 C 1938.1000000000001 3204.8999999999987 1939.5000000000002 3188.3999999999987 1939.6000000000001 3188.1999999999985 C 1939.7 3187.9999999999986 1947.6000000000001 3193.1999999999985 1957.2 3199.7999999999984 C 1966.7 3206.2999999999984 1984.6000000000001 3218.499999999998 1997 3226.6999999999985 C 2009.4 3234.9999999999986 2026.2 3246.3999999999983 2034.5 3251.9999999999986 L 2049.5 3262.1999999999985 L 2032 3244.2999999999984 C 2011.8 3223.6999999999985 1998 3208.5999999999985 1987 3194.999999999998 C 1977.6 3183.3999999999983 1967.3 3173.699999999998 1952.9 3162.699999999998 C 1944.1000000000001 3156.099999999998 1942 3153.999999999998 1942 3151.999999999998 C 1942 3149.7999999999984 1944.5 3147.599999999998 1957.3 3138.2999999999984 C 1992.3 3112.8999999999983 2019.3999999999999 3088.499999999998 2030.8999999999999 3071.999999999998 C 2056.1 3035.999999999998 2051 3014.499999999998 2005.8999999999999 2968.199999999998 C 1999.3999999999999 2961.499999999998 1993.9999999999998 2955.799999999998 1993.9999999999998 2955.599999999998 C 1993.9999999999998 2955.3999999999983 1999.4999999999998 2951.099999999998 2006.2999999999997 2945.8999999999983 C 2025.6999999999998 2930.999999999998 2035.7999999999997 2922.1999999999985 2062.9999999999995 2896.499999999998 C 2120.6999999999994 2841.7999999999984 2154.6999999999994 2812.2999999999984 2207.4999999999995 2770.999999999998 C 2268.9999999999995 2722.8999999999983 2294.2999999999997 2700.8999999999983 2321.3999999999996 2672.099999999998 C 2359.8999999999996 2631.099999999998 2388.9999999999995 2584.099999999998 2405.4999999999995 2535.999999999998 C 2414.4999999999995 2509.499999999998 2418.6999999999994 2488.999999999998 2419.5999999999995 2466.499999999998 C 2422.2999999999993 2400.199999999998 2385.0999999999995 2360.8999999999983 2234.9999999999995 2271.2999999999984 C 2199.9999999999995 2250.3999999999983 2152.7999999999997 2223.2999999999984 2093.2999999999997 2189.999999999998 C 2080.9999999999995 2183.099999999998 2070.9999999999995 2177.2999999999984 2070.9999999999995 2176.999999999998 C 2070.9999999999995 2176.699999999998 2082.5999999999995 2170.8999999999983 2096.7999999999997 2164.099999999998 C 2178.2999999999997 2124.699999999998 2279.3999999999996 2072.999999999998 2329.9999999999995 2044.699999999998 C 2470.6999999999994 1965.999999999998 2503.3999999999996 1914.899999999998 2489.8999999999996 1794.499999999998 C 2486.2 1761.0999999999979 2482.0999999999995 1737.499999999998 2466.4999999999995 1659.499999999998 C 2453.0999999999995 1592.699999999998 2450.8999999999996 1576.699999999998 2454.2999999999997 1569.999999999998 C 2458.1 1562.399999999998 2470.2999999999997 1571.299999999998 2490.6 1596.499999999998 C 2529.2 1644.5999999999979 2554.7999999999997 1711.199999999998 2558.9 1774.5999999999979 C 2562.2000000000003 1823.499999999998 2552.2000000000003 1864.299999999998 2520.4 1932.6999999999978 C 2507.3 1960.7999999999977 2504 1968.9999999999977 2503.3 1975.3999999999978 C 2502.6000000000004 1981.299999999998 2504.2000000000003 1982.9999999999977 2510.3 1982.9999999999977 C 2516.7000000000003 1982.9999999999977 2534.4 1976.4999999999977 2550.5 1968.0999999999976 C 2577 1954.4999999999977 2599.6 1938.2999999999977 2620.9 1917.5999999999976 C 2665.6 1873.9999999999977 2686.4 1828.7999999999977 2692 1762.3999999999976 C 2693.6 1743.7999999999977 2692.8 1695.1999999999975 2690.6 1676.9999999999975 C 2683.2 1616.5999999999974 2665.9 1559.5999999999974 2637.2999999999997 1501.7999999999975 C 2594.2 1414.4999999999975 2542.2 1361.4999999999975 2447.4999999999995 1308.2999999999975 C 2427.1999999999994 1296.7999999999975 2370.9999999999995 1269.0999999999974 2346.4999999999995 1258.4999999999975 C 2284.0999999999995 1231.2999999999975 2236.8999999999996 1217.5999999999974 2183.9999999999995 1211.2999999999975 C 2165.6999999999994 1209.1999999999975 2120.6999999999994 1208.8999999999974 2104.4999999999995 1210.7999999999975 C 2055.3999999999996 1216.7999999999975 2022.8999999999996 1229.0999999999974 2015.8999999999996 1244.4999999999975 C 2010.7999999999997 1255.4999999999975 2016.5999999999997 1268.2999999999975 2035.4999999999995 1287.8999999999976 C 2048.1999999999994 1301.0999999999976 2063.0999999999995 1313.8999999999976 2104.9999999999995 1347.6999999999975 C 2162.8999999999996 1394.4999999999975 2184.5999999999995 1413.4999999999975 2213.4999999999995 1443.0999999999976 C 2275.6999999999994 1506.6999999999975 2309.5999999999995 1564.5999999999976 2332.9999999999995 1647.2999999999977 C 2342.8999999999996 1682.0999999999976 2348.2999999999997 1712.4999999999977 2348.2999999999997 1733.4999999999977 C 2348.2999999999997 1759.5999999999976 2342.4999999999995 1778.5999999999976 2327.2999999999997 1801.8999999999978 C 2299.2 1845.1999999999978 2236.3999999999996 1895.4999999999977 2120.4999999999995 1967.6999999999978 C 2083.4999999999995 1990.6999999999978 2004.5999999999995 2037.6999999999978 1989.0999999999995 2045.9999999999977 L 1986.6999999999994 2047.1999999999978 L 1987.2999999999993 1994.3999999999978 C 1988.0999999999992 1926.3999999999978 1989.8999999999992 1887.4999999999977 1993.9999999999993 1850.9999999999977 C 1999.1999999999994 1804.4999999999977 2002.4999999999993 1741.2999999999977 2004.9999999999993 1642.9999999999977 C 2006.7999999999993 1572.6999999999978 2007.2999999999993 1416.8999999999978 2006.0999999999992 1333.4999999999977 C 2004.5999999999992 1233.9999999999977 2005.4999999999993 1211.8999999999978 2011.9999999999993 1181.4999999999977 C 2013.1999999999994 1175.9999999999977 2020.1999999999994 1146.6999999999978 2027.6999999999994 1116.4999999999977 C 2047.2999999999993 1036.1999999999978 2047.8999999999994 1033.6999999999978 2049.6999999999994 1019.4999999999977 C 2051.0999999999995 1008.5999999999977 2051.1999999999994 1004.9999999999977 2050.1999999999994 997.1999999999978 C 2047.9999999999993 979.7999999999978 2041.6999999999994 965.6999999999978 2028.1999999999994 947.9999999999977 C 2016.7999999999993 933.0999999999977 1984.6999999999994 901.6999999999978 1952.8999999999994 874.4999999999977 C 1905.8999999999994 834.1999999999978 1890.1999999999994 818.9999999999977 1872.8999999999994 797.4999999999977 C 1832.3999999999994 747.1999999999978 1826.5999999999995 698.5999999999977 1855.3999999999994 650.6999999999978 C 1873.2999999999995 620.7999999999978 1908.9999999999993 584.7999999999978 1943.3999999999994 561.8999999999978 C 2004.0999999999995 521.4999999999978 2065.7999999999993 521.0999999999979 2113.7999999999993 560.5999999999979 C 2136.1999999999994 579.0999999999979 2152.6999999999994 606.0999999999979 2156.899999999999 631.5999999999979 C 2158.999999999999 643.9999999999978 2155.999999999999 653.7999999999979 2147.1999999999994 663.1999999999979 C 2141.399999999999 669.4999999999978 2133.2999999999993 674.7999999999979 2113.9999999999995 684.9999999999978 C 2086.6999999999994 699.4999999999978 2077.0999999999995 706.5999999999979 2068.9999999999995 718.2999999999978 C 2066.2999999999997 722.0999999999977 2063.1999999999994 727.4999999999978 2062.0999999999995 730.3999999999978 C 2052.2999999999993 756.5999999999979 2062.1999999999994 800.3999999999978 2084.5999999999995 830.2999999999978 C 2098.5999999999995 848.9999999999978 2114.4999999999995 860.0999999999977 2135.4999999999995 865.7999999999978 C 2143.7999999999997 868.0999999999977 2162.8999999999996 867.9999999999978 2173.7999999999997 865.6999999999978 C 2194.8999999999996 861.1999999999978 2219.7999999999997 850.0999999999977 2241.9999999999995 835.1999999999978 C 2260.5999999999995 822.7999999999978 2270.1999999999994 814.8999999999978 2285.9999999999995 798.9999999999977 C 2325.1999999999994 759.7999999999977 2344.3999999999996 719.0999999999977 2351.6999999999994 659.9999999999977 C 2353.0999999999995 648.8999999999977 2353.4999999999995 638.2999999999977 2353.399999999999 614.4999999999977 C 2353.399999999999 585.3999999999977 2353.1999999999994 582.5999999999977 2350.6999999999994 568.9999999999977 C 2345.4999999999995 540.1999999999978 2337.899999999999 517.4999999999977 2325.0999999999995 492.1999999999977 C 2295 433 2242 382.4 2174.7 349 C 2116 319.7 2057.3999999999996 306.6 1997.4999999999998 309.1 z M 2260.6 1257.9 C 2282.7 1262.4 2302.1 1269.8000000000002 2308.7 1276.2 C 2317.8999999999996 1285.1000000000001 2313.7 1298.1000000000001 2299.3999999999996 1305.1000000000001 C 2282.9999999999995 1313.2 2266.4999999999995 1306.8000000000002 2242.8999999999996 1283.1000000000001 C 2225.8999999999996 1266.0000000000002 2222.8999999999996 1259.8000000000002 2230.2999999999997 1256.4 C 2234.4999999999995 1254.5 2246.9999999999995 1255.1000000000001 2260.6 1257.9 z M 1603.8 1260.6000000000001 C 1608.8999999999999 1264.1000000000001 1606.2 1269.7 1592.7 1283.7 C 1570.4 1306.9 1553.8 1315.3 1538.5 1311 C 1524.5 1307.1 1515.2 1292.4 1520.9 1283.3 C 1526.2 1274.8999999999999 1549.2 1265.3999999999999 1576.5 1260.5 C 1586.8 1258.6 1601 1258.6 1603.8 1260.6 z M 1885 2537.8 C 1885 2688.5 1885.3 2818.5 1885.7 2826.9 L 1886.3 2842.2000000000003 L 1855.3999999999999 2811.2000000000003 C 1838.3999999999999 2794.2000000000003 1814.1999999999998 2770.7000000000003 1801.4999999999998 2759.0000000000005 C 1705.9999999999998 2670.5000000000005 1663.0999999999997 2623.5000000000005 1626.7999999999997 2568.0000000000005 C 1593.7999999999997 2517.5000000000005 1581.8999999999996 2479.6000000000004 1589.5999999999997 2449.7000000000003 C 1597.2999999999997 2420.0000000000005 1623.3999999999996 2395.1000000000004 1682.2999999999997 2361.3 C 1703.9999999999998 2348.9 1768.0999999999997 2316.9 1811.9999999999998 2296.7000000000003 C 1829.2999999999997 2288.7000000000003 1852.2999999999997 2278.1000000000004 1862.9999999999998 2273.2000000000003 C 1873.6999999999998 2268.2000000000003 1883.0999999999997 2264.1000000000004 1883.7999999999997 2264.1000000000004 C 1884.6999999999998 2264.0000000000005 1884.9999999999998 2319.4000000000005 1884.9999999999998 2537.8 z M 2003.5 2292.2000000000003 C 2150.8 2359.6000000000004 2210.1 2395.3 2232.6 2430.1000000000004 C 2247 2452.3 2249 2476.9000000000005 2239 2507.0000000000005 C 2225.5 2547.6000000000004 2189.4 2601.5000000000005 2137 2659.0000000000005 C 2118.3 2679.5000000000005 2083.6 2713.7000000000003 2042 2752.5000000000005 C 2021.4 2771.7000000000003 1994.4 2797.4000000000005 1982.1 2809.5000000000005 L 1959.6999999999998 2831.5000000000005 L 1960.3999999999999 2817.5000000000005 C 1967.1 2670.4000000000005 1974.1999999999998 2486.7000000000003 1977.9999999999998 2361.0000000000005 C 1979.1999999999998 2322.2000000000003 1980.2999999999997 2288.6000000000004 1980.5999999999997 2286.3000000000006 L 1981.0999999999997 2282.100000000001 L 1986.2999999999997 2284.400000000001 C 1989.1999999999998 2285.700000000001 1996.8999999999996 2289.200000000001 2003.4999999999998 2292.200000000001 z M 1887.7 3091.5 L 1887.5 3111.5 L 1882.6 3105 C 1874.3 3094 1872.5 3089.1 1872.5 3078 C 1872.5 3069 1872.7 3068.1 1876.2 3061.5 C 1878.2 3057.6 1881.3 3052.5 1883.2 3050 L 1886.5 3045.5 L 1887.2 3058.5 C 1887.7 3065.6 1887.9 3080.5 1887.7 3091.5 z M 1952.9 3051.5 C 1959.2 3061.8 1961.3000000000002 3068.5 1960.8000000000002 3076.5 C 1960.5000000000002 3081.2 1959.5000000000002 3085.4 1957.8000000000002 3089.1 C 1955.1000000000001 3094.7999999999997 1946.2000000000003 3107.5 1945.4 3106.7 C 1944.7 3106.1 1948.3000000000002 3046 1949 3046 C 1949.3 3046 1951.1 3048.5 1952.9 3051.5 z" stroke-linecap="round" />
</g>
</g>
</g>
</svg>