<?xml version="1.0" standalone="no"?>
<!DOCTYPE svg PUBLIC "-//W3C//DTD SVG 20010904//EN"
 "http://www.w3.org/TR/2001/REC-SVG-20010904/DTD/svg10.dtd">
<svg version="1.0" xmlns="http://www.w3.org/2000/svg"
 width="24" height="24" viewBox="0 0 3895.000000 3497.000000"
 preserveAspectRatio="xMidYMid meet">

<g transform="translate(0.000000,3497.000000) scale(0.100000,-0.100000)"
fill="#000000" stroke="none">
<path d="M38825 34922 c-339 -242 -599 -452 -1255 -1012 -779 -665 -1115 -931
-1495 -1183 -284 -187 -466 -286 -770 -418 -93 -40 -307 -142 -475 -225 -278
-139 -448 -231 -1085 -589 -272 -152 -663 -352 -889 -455 -814 -369 -1766
-641 -3006 -859 -662 -116 -897 -137 -2635 -226 -975 -50 -1462 -88 -1890
-146 -127 -17 -444 -75 -451 -82 -6 -5 -95 -332 -134 -485 -107 -430 -173
-770 -290 -1512 -150 -951 -237 -1353 -415 -1926 -34 -109 -37 -113 -98 -171
-154 -144 -365 -314 -657 -528 -242 -177 -371 -278 -462 -364 -62 -57 -77 -64
-924 -442 l-862 -384 232 -46 c255 -51 352 -75 756 -185 646 -177 904 -219
1193 -194 193 16 289 39 712 171 454 142 546 189 791 406 225 200 627 518 643
509 3 -2 103 -63 221 -136 673 -416 907 -556 1192 -714 992 -548 1828 -832
2639 -897 178 -14 538 -6 709 16 252 32 557 107 759 186 113 44 518 257 501
263 -8 3 -140 39 -292 81 -1671 455 -2648 887 -3641 1609 -248 180 -775 611
-763 624 13 13 218 -49 776 -233 702 -232 961 -314 1350 -425 2070 -589 3674
-683 4868 -285 684 229 1232 638 1609 1203 42 62 72 116 69 120 -13 13 -247
14 -396 2 -80 -6 -262 -27 -405 -46 -472 -64 -551 -73 -754 -94 -1048 -104
-2183 8 -3583 356 -757 188 -1708 480 -2453 754 l-50 19 36 0 c50 1 467 -34
819 -70 402 -40 779 -86 1473 -179 944 -128 1233 -156 1692 -167 858 -19 1806
125 3140 477 676 178 783 229 1110 526 66 60 226 202 355 315 427 373 661 602
875 854 282 332 472 633 625 991 45 105 145 393 138 399 -2 2 -84 -42 -183
-97 -2216 -1230 -3871 -1749 -5840 -1828 -564 -22 -1177 -3 -1857 60 -444 41
-1105 128 -1072 141 10 5 1241 247 2734 539 l2715 530 185 77 c101 41 286 109
410 150 338 113 484 176 755 328 832 464 1671 1196 2236 1950 326 434 581 911
723 1354 160 497 201 1002 120 1480 -13 79 -25 145 -26 146 -2 1 -25 -14 -53
-33z"/>
<path d="M52 34798 c-36 -206 -45 -345 -39 -593 6 -237 18 -344 62 -561 115
-556 401 -1150 828 -1719 578 -770 1453 -1521 2307 -1980 241 -129 356 -177
695 -290 121 -40 297 -105 390 -144 l170 -71 2730 -535 c1502 -295 2735 -537
2740 -539 18 -6 -36 -16 -300 -51 -479 -63 -906 -105 -1395 -137 -263 -17
-1306 -17 -1535 0 -755 57 -1319 145 -1960 307 -1094 276 -2171 728 -3558
1492 -115 63 -210 113 -212 111 -2 -2 18 -69 44 -148 147 -435 356 -801 686
-1202 160 -194 548 -577 875 -863 157 -138 332 -293 390 -345 354 -320 424
-351 1285 -570 909 -232 1534 -348 2230 -412 188 -17 988 -18 1185 0 385 34
550 54 1535 186 684 92 1223 151 1775 196 225 18 276 19 239 5 -298 -109
-1077 -367 -1429 -473 -1253 -377 -2265 -584 -3255 -664 -215 -17 -1010 -17
-1205 0 -230 20 -485 50 -755 88 -412 57 -594 75 -793 75 -101 0 -187 -2 -190
-5 -8 -9 133 -215 230 -338 105 -131 313 -339 448 -448 464 -371 1063 -615
1765 -719 471 -70 1071 -79 1650 -26 858 80 1835 291 2956 639 151 47 526 169
834 271 308 102 592 194 630 205 90 25 165 39 165 31 0 -18 -431 -372 -675
-556 -985 -740 -2001 -1200 -3645 -1651 -151 -42 -301 -83 -333 -93 l-59 -16
234 -122 c147 -77 277 -136 353 -163 658 -227 1372 -245 2155 -54 778 191
1575 562 2704 1261 480 298 587 363 595 363 24 0 407 -305 620 -493 283 -250
371 -292 1009 -482 285 -85 382 -104 567 -112 314 -13 482 18 1325 246 255 69
524 131 682 158 60 9 108 20 108 23 0 3 -383 176 -852 385 l-852 380 -100 88
c-107 94 -286 232 -501 388 -168 121 -390 299 -535 429 l-115 103 -53 171
c-163 525 -250 929 -393 1830 -117 741 -170 1027 -265 1426 -45 189 -154 593
-164 603 -22 25 -368 85 -700 122 -404 44 -918 79 -1925 130 -1313 66 -1658
96 -2200 186 -1196 200 -2155 458 -2941 790 -404 171 -680 311 -1359 691 -673
377 -882 484 -1356 694 -605 269 -1045 580 -2144 1518 -669 571 -962 810
-1242 1011 -73 52 -134 95 -136 95 -2 0 -14 -55 -25 -122z"/>
<path d="M19975 31879 c-183 -8 -324 -29 -508 -76 -893 -224 -1867 -911 -2372
-1673 -118 -177 -196 -340 -271 -564 -182 -547 -234 -933 -234 -1756 0 -881
109 -1465 366 -1971 160 -314 339 -530 747 -902 188 -171 203 -187 288 -315
148 -221 216 -372 262 -582 36 -160 52 -310 87 -800 44 -607 77 -962 140
-1476 62 -506 108 -787 235 -1434 92 -470 140 -771 149 -930 8 -147 8 -1317 0
-3388 -7 -1615 -9 -1772 -23 -1767 -36 14 -860 492 -1234 717 -748 449 -1372
862 -1771 1172 -705 547 -996 973 -996 1463 0 280 135 865 301 1305 245 647
596 1164 1172 1725 259 251 468 430 1102 943 294 237 423 349 536 462 310 312
312 492 7 633 -154 71 -413 131 -689 161 -192 20 -659 15 -839 -10 -667 -93
-1259 -296 -2145 -738 -624 -312 -1022 -565 -1378 -878 -391 -343 -685 -741
-957 -1292 -441 -894 -623 -1812 -534 -2686 60 -590 260 -1017 669 -1428 205
-207 418 -368 670 -508 197 -109 433 -195 498 -180 79 17 61 94 -103 444 -329
701 -435 1102 -416 1568 23 585 225 1187 567 1687 140 206 315 399 403 446
l46 24 22 -23 c21 -21 23 -31 22 -120 -1 -129 -18 -231 -130 -782 -203 -1005
-264 -1422 -264 -1801 0 -342 48 -573 170 -824 206 -423 629 -776 1530 -1277
453 -252 1349 -711 2163 -1107 158 -77 287 -142 287 -144 0 -3 -87 -53 -192
-112 -651 -364 -1386 -790 -1726 -1002 -549 -342 -844 -557 -1081 -787 -296
-289 -407 -514 -418 -852 -16 -455 170 -1022 514 -1567 146 -230 306 -429 538
-666 252 -258 489 -463 985 -851 612 -479 965 -784 1553 -1344 246 -234 328
-304 559 -483 l149 -115 -154 -157 c-269 -275 -385 -450 -411 -622 -16 -106
55 -296 166 -444 121 -163 400 -411 725 -645 72 -52 129 -98 127 -102 -3 -5
-42 -36 -87 -70 -130 -99 -234 -195 -301 -277 -128 -157 -278 -323 -471 -520
-130 -133 -182 -192 -150 -169 28 19 253 172 500 338 248 167 464 314 482 327
l31 24 6 -63 c3 -35 8 -216 11 -403 12 -758 46 -1553 80 -1929 14 -146 38
-292 50 -304 13 -13 37 28 60 100 89 282 185 1065 271 2218 15 201 29 366 30
368 1 2 80 -50 176 -116 95 -65 274 -187 398 -269 124 -83 292 -197 375 -253
l150 -102 -175 179 c-202 206 -340 357 -450 493 -94 116 -197 213 -341 323
-88 66 -109 87 -109 107 0 22 25 44 153 137 350 254 621 498 736 663 252 360
201 575 -250 1038 -65 67 -119 124 -119 126 0 2 55 45 123 97 194 149 295 237
567 494 577 547 917 842 1445 1255 615 481 868 701 1139 989 385 410 676 880
841 1361 90 265 132 470 141 695 27 663 -345 1056 -1846 1952 -350 209 -822
480 -1417 813 -123 69 -223 127 -223 130 0 3 116 61 258 129 815 394 1826 911
2332 1194 1407 787 1734 1298 1599 2502 -37 334 -78 570 -234 1350 -134 668
-156 828 -122 895 38 76 160 -13 363 -265 386 -481 642 -1147 683 -1781 33
-489 -67 -897 -385 -1581 -131 -281 -164 -363 -171 -427 -7 -59 9 -76 70 -76
64 0 241 65 402 149 265 136 491 298 704 505 447 436 655 888 711 1552 16 186
8 672 -14 854 -74 604 -247 1174 -533 1752 -431 873 -951 1403 -1898 1935
-203 115 -765 392 -1010 498 -624 272 -1096 409 -1625 472 -183 21 -633 24
-795 5 -491 -60 -816 -183 -886 -337 -51 -110 7 -238 196 -434 127 -132 276
-260 695 -598 579 -468 796 -658 1085 -954 622 -636 961 -1215 1195 -2042 99
-348 153 -652 153 -862 0 -261 -58 -451 -210 -684 -281 -433 -909 -936 -2068
-1658 -370 -230 -1159 -700 -1314 -783 l-24 -12 6 528 c8 680 26 1069 67 1434
52 465 85 1097 110 2080 18 703 23 2261 11 3095 -15 995 -6 1216 59 1520 12
55 82 348 157 650 196 803 202 828 220 970 14 109 15 145 5 223 -22 174 -85
315 -220 492 -114 149 -435 463 -753 735 -470 403 -627 555 -800 770 -405 503
-463 989 -175 1468 179 299 536 659 880 888 607 404 1224 408 1704 13 224
-185 389 -455 431 -710 21 -124 -9 -222 -97 -316 -58 -63 -139 -116 -332 -218
-273 -145 -369 -216 -450 -333 -27 -38 -58 -92 -69 -121 -98 -262 1 -700 225
-999 140 -187 299 -298 509 -355 83 -23 274 -22 383 1 211 45 460 156 682 305
186 124 282 203 440 362 392 392 584 799 657 1390 14 111 18 217 17 455 0 291
-2 319 -27 455 -52 288 -128 515 -256 768 -301 592 -831 1098 -1504 1432 -587
293 -1173 424 -1772 399z m2631 -9488 c221 -45 415 -119 481 -183 92 -89 50
-219 -93 -289 -164 -81 -329 -17 -565 220 -170 171 -200 233 -126 267 42 19
167 13 303 -15z m-6568 -27 c51 -35 24 -91 -111 -231 -223 -232 -389 -316
-542 -273 -140 39 -233 186 -176 277 53 84 283 179 556 228 103 19 245 19 273
-1z m2812 -12772 c0 -1507 3 -2807 7 -2891 l6 -153 -309 310 c-170 170 -412
405 -539 522 -955 885 -1384 1355 -1747 1910 -330 505 -449 884 -372 1183 77
297 338 546 927 884 217 124 858 444 1297 646 173 80 403 186 510 235 107 50
201 91 208 91 9 1 12 -553 12 -2737z m1185 2456 c1473 -674 2066 -1031 2291
-1379 144 -222 164 -468 64 -769 -135 -406 -496 -945 -1020 -1520 -187 -205
-534 -547 -950 -935 -206 -192 -476 -449 -599 -570 l-224 -220 7 140 c67 1471
138 3308 176 4565 12 388 23 724 26 747 l5 42 52 -23 c29 -13 106 -48 172 -78z
m-1158 -7993 l-2 -200 -49 65 c-83 110 -101 159 -101 270 0 90 2 99 37 165 20
39 51 90 70 115 l33 45 7 -130 c5 -71 7 -220 5 -330z m652 400 c63 -103 84
-170 79 -250 -3 -47 -13 -89 -30 -126 -27 -57 -116 -184 -124 -176 -7 6 29
607 36 607 3 0 21 -25 39 -55z"/>
</g>
</svg>
